<svg xmlns="http://www.w3.org/2000/svg" version="1.1" xmlns:xlink="http://www.w3.org/1999/xlink" width="1500" height="393" viewBox="0 0 1500 393"><svg xml:space="preserve" width="1500" height="393" data-version="2" data-id="lg_ZLOvsxUSO3bCAUWe8W" viewBox="0 0 434 393" x="0" y="0"><rect width="100%" height="100%" fill="transparent"></rect><circle r="165.97" fill="#94c3d2" transform="translate(171.5 171.3)scale(1.0073)"></circle><path fill="#010c07" d="M326.228 352.898q-35.64 0-68.31-9.65-32.67-9.66-58.17-29.7-25.49-20.05-40.34-50.25-14.85-30.19-14.85-71.28 0-47.52 17.08-81.42 17.08-33.91 45.29-55.44 28.22-21.54 61.88-31.68 33.66-10.15 66.33-10.15 15.34 0 32.17 2.47 16.83 2.48 31.19 5.94 14.35 3.47 22.27 6.44l-4.95 33.66q-26.73-11.39-52.72-19.8-25.98-8.42-58.16-8.42-52.47 11.88-80.19 51.73-27.72 39.85-27.72 98.75 0 49.5 18.07 83.41t49.25 50.99q31.19 17.07 71.28 17.07 26.24 0 51.98-6.68t41.08-20.05v27.23q-14.85 5.94-33.16 9.65-18.32 3.71-36.39 5.45-18.06 1.73-32.91 1.73" paint-order="stroke"></path><rect width="284.13" height="339.57" x="-142.06" y="-169.78" fill="none" rx="0" ry="0" transform="translate(287.12 183.61)"></rect><path fill="#b3b3b3" d="M220.208 387.888q-2.37 0-4.55-.64-2.18-.65-3.88-1.98-1.7-1.34-2.69-3.35-.99-2.02-.99-4.76 0-3.16 1.14-5.42 1.14-2.27 3.02-3.7 1.88-1.44 4.13-2.11 2.24-.68 4.42-.68 1.02 0 2.14.17 1.12.16 2.08.39t1.49.43l-.33 2.24q-1.79-.75-3.52-1.32-1.73-.56-3.88-.56-3.49.8-5.34 3.45-1.85 2.66-1.85 6.59 0 3.3 1.2 5.56 1.21 2.26 3.29 3.4 2.08 1.13 4.75 1.13 1.75 0 3.47-.44 1.71-.45 2.73-1.34v1.82q-.99.39-2.21.64t-2.42.36q-1.21.12-2.2.12"></path><rect width="18.94" height="22.64" x="-9.47" y="-11.32" fill="none" rx="0" ry="0" transform="translate(218.07 377.07)"></rect><path fill="#b3b3b3" d="M239.018 387.888q-2.74 0-4.98-1.24t-3.56-3.63q-1.32-2.39-1.32-5.86 0-2.7.72-4.72.73-2.01 1.97-3.38 1.23-1.37 2.77-2.21 1.53-.84 3.17-1.22 1.63-.38 3.15-.38 2.77 0 5.01 1.22 2.25 1.22 3.57 3.6 1.32 2.37 1.32 5.84 0 2.71-.73 4.72-.72 2.01-1.98 3.4-1.25 1.38-2.79 2.24-1.53.86-3.17 1.24-1.63.38-3.15.38m.96-1.09q1.98 0 3.38-.96 1.41-.95 2.28-2.47.87-1.52 1.29-3.3.41-1.78.41-3.4 0-2.05-.41-3.88-.42-1.83-1.36-3.22-.94-1.38-2.5-2.17-1.57-.8-3.91-.8-2.22.76-3.67 2.31-1.45 1.55-2.14 3.57-.7 2.01-.7 4.19 0 2.01.42 3.84.41 1.83 1.27 3.25.86 1.42 2.26 2.23t3.38.81"></path><rect width="21.68" height="22.64" x="-10.84" y="-11.32" fill="none" rx="0" ry="0" transform="translate(240.5 377.07)"></rect><path fill="#b3b3b3" d="M254.928 387.488v-21.84h6.24q2.21 0 4.45.61 2.25.61 4.13 1.98t3.02 3.56q1.13 2.2 1.13 5.36 0 2.74-.99 4.71-.99 1.96-2.69 3.2-1.69 1.23-3.87 1.83-2.18.59-4.56.59Zm6.2-1.12q2.68 0 4.77-1.06 2.1-1.05 3.3-3.21 1.21-2.16 1.21-5.46 0-2.55-.94-4.56t-2.58-3.36q-1.63-1.36-3.71-1.89-1.16 0-2.62.2-1.47.2-2.4.5v18.54q.47.14 1.32.22.86.08 1.65.08"></path><rect width="18.97" height="21.84" x="-9.48" y="-10.92" fill="none" rx="0" ry="0" transform="translate(264.91 377.07)"></rect><path fill="#b3b3b3" d="M283.438 387.488v-8.12l-7.46-13.72h3.6l6.11 12.54 5.7-12.54h1.65l-6.4 13.56v8.28Z"></path><rect width="17.06" height="21.84" x="-8.53" y="-10.92" fill="none" rx="0" ry="0" transform="translate(285 377.07)"></rect><path fill="#b3b3b3" d="M302.348 387.888q-1.95 0-3.68-.46-1.73-.47-2.69-.83v-1.55q.56.26 1.52.68.96.41 2.11.71 1.16.29 2.25.29 2.17 0 3.51-1.13 1.34-1.14 1.34-3.22 0-1.29-.76-2.21-.76-.93-1.97-1.69-1.2-.76-2.55-1.46-1.36-.71-2.56-1.56-1.21-.84-1.96-1.98-.76-1.13-.76-2.69 0-1.28.69-2.55.69-1.27 2.21-2.13 1.52-.86 3.99-.86 1.36 0 2.94.33 1.58.33 2.74.69l-.33 2.25q-1.91-.83-3.8-1.37-1.88-.55-3.82-.55-.96.47-1.34 1.21-.38.74-.38 1.63 0 1.32.79 2.33.79 1 2.06 1.85 1.28.84 2.68 1.63 1.4.79 2.67 1.72 1.27.92 2.06 2.07.8 1.16.8 2.71 0 1.72-.86 3.12-.86 1.4-2.58 2.21-1.71.81-4.32.81"></path><rect width="14.13" height="22.64" x="-7.07" y="-11.32" fill="none" rx="0" ry="0" transform="translate(303.54 377.07)"></rect><path fill="#b3b3b3" d="M320.698 387.888q-1.95 0-3.68-.46-1.73-.47-2.69-.83v-1.55q.56.26 1.52.68.95.41 2.11.71 1.15.29 2.24.29 2.18 0 3.52-1.13 1.33-1.14 1.33-3.22 0-1.29-.75-2.21-.76-.93-1.97-1.69-1.2-.76-2.56-1.46-1.35-.71-2.55-1.56-1.21-.84-1.97-1.98-.76-1.13-.76-2.69 0-1.28.7-2.55.69-1.27 2.21-2.13 1.52-.86 3.99-.86 1.35 0 2.94.33 1.58.33 2.74.69l-.33 2.25q-1.92-.83-3.8-1.37-1.88-.55-3.83-.55-.95.47-1.33 1.21-.38.74-.38 1.63 0 1.32.79 2.33.79 1 2.06 1.85 1.27.84 2.68 1.63 1.4.79 2.67 1.72 1.27.92 2.06 2.07.79 1.16.79 2.71 0 1.72-.85 3.12-.86 1.4-2.58 2.21-1.71.81-4.32.81"></path><rect width="14.12" height="22.64" x="-7.06" y="-11.32" fill="none" rx="0" ry="0" transform="translate(321.89 377.07)"></rect><path fill="#b3b3b3" d="M333.368 387.488v-21.84h13.23l-.33 2.21-6.13-1.03q-.96 0-1.79.15-.82.15-1.78.42v8.01h7.33v1.26h-7.33v9.63l10.23-1.02-.33 2.21Z"></path><rect width="13.43" height="21.84" x="-6.71" y="-10.92" fill="none" rx="0" ry="0" transform="translate(340.58 377.07)"></rect><path fill="#b3b3b3" d="M357.058 387.488v-8.12l-7.45-13.72h3.59l6.11 12.54 5.71-12.54h1.65l-6.4 13.56v8.28Z"></path><rect width="17.06" height="21.84" x="-8.53" y="-10.92" fill="none" rx="0" ry="0" transform="translate(358.64 377.07)"></rect></svg></svg>